<?xml version="1.0" encoding="UTF-8" standalone="no"?>
<!DOCTYPE svg PUBLIC "-//W3C//DTD SVG 1.1//EN"
 "http://www.w3.org/Graphics/SVG/1.1/DTD/svg11.dtd">
<!-- Generated by graphviz version 9.0.0 (20231125.0833)
 -->
<!-- Pages: 1 -->
<svg width="539pt" height="620pt"
 viewBox="0.00 0.00 538.53 620.00" xmlns="http://www.w3.org/2000/svg" xmlns:xlink="http://www.w3.org/1999/xlink">
<g id="graph0" class="graph" transform="scale(1 1) rotate(0) translate(4 616)">
<polygon fill="white" stroke="none" points="-4,4 -4,-616 534.53,-616 534.53,4 -4,4"/>
<!-- a -->
<g id="node1" class="node">
<title>a</title>
<ellipse fill="none" stroke="black" cx="158.5" cy="-594" rx="62.78" ry="18"/>
<text text-anchor="middle" x="158.5" y="-589.33" font-family="Times,serif" font-size="14.00">consensus</text>
</g>
<!-- b -->
<g id="node2" class="node">
<title>b</title>
<ellipse fill="none" stroke="black" cx="158.5" cy="-522" rx="87.51" ry="18"/>
<text text-anchor="middle" x="158.5" y="-517.33" font-family="Times,serif" font-size="14.00">read alignment</text>
</g>
<!-- a&#45;&gt;b -->
<g id="edge1" class="edge">
<title>a&#45;&gt;b</title>
<path fill="none" stroke="black" d="M158.5,-575.7C158.5,-568.41 158.5,-559.73 158.5,-551.54"/>
<polygon fill="black" stroke="black" points="162,-551.62 158.5,-541.62 155,-551.62 162,-551.62"/>
</g>
<!-- c -->
<g id="node3" class="node">
<title>c</title>
<ellipse fill="none" stroke="black" cx="158.5" cy="-450" rx="98.03" ry="18"/>
<text text-anchor="middle" x="158.5" y="-445.32" font-family="Times,serif" font-size="14.00">per&#45;read variants</text>
</g>
<!-- b&#45;&gt;c -->
<g id="edge2" class="edge">
<title>b&#45;&gt;c</title>
<path fill="none" stroke="black" d="M158.5,-503.7C158.5,-496.41 158.5,-487.73 158.5,-479.54"/>
<polygon fill="black" stroke="black" points="162,-479.62 158.5,-469.62 155,-479.62 162,-479.62"/>
</g>
<!-- f -->
<g id="node6" class="node">
<title>f</title>
<ellipse fill="none" stroke="black" cx="225.5" cy="-306" rx="100.14" ry="18"/>
<text text-anchor="middle" x="225.5" y="-301.32" font-family="Times,serif" font-size="14.00">accepted variants</text>
</g>
<!-- c&#45;&gt;f -->
<g id="edge5" class="edge">
<title>c&#45;&gt;f</title>
<path fill="none" stroke="black" d="M140.37,-431.98C123.06,-413.6 101.64,-383.75 116.5,-360 126.16,-344.56 141.75,-333.51 158.15,-325.63"/>
<polygon fill="black" stroke="black" points="159.28,-328.96 167.03,-321.74 156.47,-322.55 159.28,-328.96"/>
</g>
<!-- m -->
<g id="node13" class="node">
<title>m</title>
<ellipse fill="none" stroke="black" cx="225.5" cy="-378" rx="100.14" ry="18"/>
<text text-anchor="middle" x="225.5" y="-373.32" font-family="Times,serif" font-size="14.00">variant frequency</text>
</g>
<!-- c&#45;&gt;m -->
<g id="edge6" class="edge">
<title>c&#45;&gt;m</title>
<path fill="none" stroke="black" stroke-dasharray="1,5" d="M174.72,-432.05C182.79,-423.63 192.69,-413.28 201.61,-403.97"/>
<polygon fill="black" stroke="black" points="204,-406.53 208.39,-396.88 198.94,-401.69 204,-406.53"/>
</g>
<!-- d -->
<g id="node4" class="node">
<title>d</title>
<ellipse fill="none" stroke="black" cx="432.5" cy="-450" rx="98.03" ry="18"/>
<text text-anchor="middle" x="432.5" y="-445.32" font-family="Times,serif" font-size="14.00">parent alignment</text>
</g>
<!-- e -->
<g id="node5" class="node">
<title>e</title>
<ellipse fill="none" stroke="black" cx="432.5" cy="-378" rx="88.56" ry="18"/>
<text text-anchor="middle" x="432.5" y="-373.32" font-family="Times,serif" font-size="14.00">parent variants</text>
</g>
<!-- d&#45;&gt;e -->
<g id="edge3" class="edge">
<title>d&#45;&gt;e</title>
<path fill="none" stroke="black" d="M432.5,-431.7C432.5,-424.41 432.5,-415.73 432.5,-407.54"/>
<polygon fill="black" stroke="black" points="436,-407.62 432.5,-397.62 429,-407.62 436,-407.62"/>
</g>
<!-- e&#45;&gt;f -->
<g id="edge4" class="edge">
<title>e&#45;&gt;f</title>
<path fill="none" stroke="black" d="M388.1,-361.98C357.01,-351.47 315.23,-337.34 281.8,-326.04"/>
<polygon fill="black" stroke="black" points="283.3,-322.85 272.7,-322.96 281.05,-329.48 283.3,-322.85"/>
</g>
<!-- g -->
<g id="node7" class="node">
<title>g</title>
<ellipse fill="none" stroke="black" cx="107.5" cy="-234" rx="107.5" ry="18"/>
<text text-anchor="middle" x="107.5" y="-229.32" font-family="Times,serif" font-size="14.00">most likley parents</text>
</g>
<!-- f&#45;&gt;g -->
<g id="edge8" class="edge">
<title>f&#45;&gt;g</title>
<path fill="none" stroke="black" d="M197.54,-288.41C181.93,-279.15 162.27,-267.49 145.3,-257.42"/>
<polygon fill="black" stroke="black" points="147.36,-254.58 136.98,-252.48 143.79,-260.6 147.36,-254.58"/>
</g>
<!-- i -->
<g id="node9" class="node">
<title>i</title>
<ellipse fill="none" stroke="black" cx="344.5" cy="-234" rx="111.18" ry="18"/>
<text text-anchor="middle" x="344.5" y="-229.32" font-family="Times,serif" font-size="14.00">count distinct reads</text>
</g>
<!-- f&#45;&gt;i -->
<g id="edge10" class="edge">
<title>f&#45;&gt;i</title>
<path fill="none" stroke="black" d="M253.7,-288.41C269.45,-279.15 289.27,-267.49 306.38,-257.42"/>
<polygon fill="black" stroke="black" points="307.94,-260.57 314.79,-252.48 304.39,-254.53 307.94,-260.57"/>
</g>
<!-- h -->
<g id="node8" class="node">
<title>h</title>
<ellipse fill="none" stroke="black" cx="107.5" cy="-162" rx="70.67" ry="18"/>
<text text-anchor="middle" x="107.5" y="-157.32" font-family="Times,serif" font-size="14.00">breakpoints</text>
</g>
<!-- g&#45;&gt;h -->
<g id="edge9" class="edge">
<title>g&#45;&gt;h</title>
<path fill="none" stroke="black" d="M107.5,-215.7C107.5,-208.41 107.5,-199.73 107.5,-191.54"/>
<polygon fill="black" stroke="black" points="111,-191.62 107.5,-181.62 104,-191.62 111,-191.62"/>
</g>
<!-- j -->
<g id="node10" class="node">
<title>j</title>
<ellipse fill="none" stroke="black" cx="344.5" cy="-162" rx="146.96" ry="18"/>
<text text-anchor="middle" x="344.5" y="-157.32" font-family="Times,serif" font-size="14.00">apply variants to reference</text>
</g>
<!-- i&#45;&gt;j -->
<g id="edge11" class="edge">
<title>i&#45;&gt;j</title>
<path fill="none" stroke="black" d="M344.5,-215.7C344.5,-208.41 344.5,-199.73 344.5,-191.54"/>
<polygon fill="black" stroke="black" points="348,-191.62 344.5,-181.62 341,-191.62 348,-191.62"/>
</g>
<!-- k -->
<g id="node11" class="node">
<title>k</title>
<ellipse fill="none" stroke="black" cx="344.5" cy="-90" rx="138.54" ry="18"/>
<text text-anchor="middle" x="344.5" y="-85.33" font-family="Times,serif" font-size="14.00">translate corrected reads</text>
</g>
<!-- j&#45;&gt;k -->
<g id="edge12" class="edge">
<title>j&#45;&gt;k</title>
<path fill="none" stroke="black" d="M344.5,-143.7C344.5,-136.41 344.5,-127.73 344.5,-119.54"/>
<polygon fill="black" stroke="black" points="348,-119.62 344.5,-109.62 341,-119.62 348,-119.62"/>
</g>
<!-- l -->
<g id="node12" class="node">
<title>l</title>
<ellipse fill="none" stroke="black" cx="344.5" cy="-18" rx="124.86" ry="18"/>
<text text-anchor="middle" x="344.5" y="-13.32" font-family="Times,serif" font-size="14.00">translated read counts</text>
</g>
<!-- k&#45;&gt;l -->
<g id="edge13" class="edge">
<title>k&#45;&gt;l</title>
<path fill="none" stroke="black" d="M344.5,-71.7C344.5,-64.41 344.5,-55.73 344.5,-47.54"/>
<polygon fill="black" stroke="black" points="348,-47.62 344.5,-37.62 341,-47.62 348,-47.62"/>
</g>
<!-- m&#45;&gt;f -->
<g id="edge7" class="edge">
<title>m&#45;&gt;f</title>
<path fill="none" stroke="black" stroke-dasharray="1,5" d="M225.5,-359.7C225.5,-352.41 225.5,-343.73 225.5,-335.54"/>
<polygon fill="black" stroke="black" points="229,-335.62 225.5,-325.62 222,-335.62 229,-335.62"/>
</g>
</g>
</svg>
