<?xml version="1.0" encoding="UTF-8" standalone="no"?>
<!DOCTYPE svg PUBLIC "-//W3C//DTD SVG 1.1//EN"
 "http://www.w3.org/Graphics/SVG/1.1/DTD/svg11.dtd">
<!-- Generated by graphviz version 9.0.0 (20231125.0833)
 -->
<!-- Pages: 1 -->
<svg width="470pt" height="548pt"
 viewBox="0.00 0.00 470.04 548.00" xmlns="http://www.w3.org/2000/svg" xmlns:xlink="http://www.w3.org/1999/xlink">
<g id="graph0" class="graph" transform="scale(1 1) rotate(0) translate(4 544)">
<polygon fill="white" stroke="none" points="-4,4 -4,-544 466.04,-544 466.04,4 -4,4"/>
<!-- a -->
<g id="node1" class="node">
<title>a</title>
<ellipse fill="none" stroke="black" cx="113.5" cy="-522" rx="62.78" ry="18"/>
<text text-anchor="middle" x="113.5" y="-517.33" font-family="Times,serif" font-size="14.00">consensus</text>
</g>
<!-- b -->
<g id="node2" class="node">
<title>b</title>
<ellipse fill="none" stroke="black" cx="113.5" cy="-450" rx="87.51" ry="18"/>
<text text-anchor="middle" x="113.5" y="-445.32" font-family="Times,serif" font-size="14.00">read alignment</text>
</g>
<!-- a&#45;&gt;b -->
<g id="edge1" class="edge">
<title>a&#45;&gt;b</title>
<path fill="none" stroke="black" d="M113.5,-503.7C113.5,-496.41 113.5,-487.73 113.5,-479.54"/>
<polygon fill="black" stroke="black" points="117,-479.62 113.5,-469.62 110,-479.62 117,-479.62"/>
</g>
<!-- c -->
<g id="node3" class="node">
<title>c</title>
<ellipse fill="none" stroke="black" cx="113.5" cy="-378" rx="98.03" ry="18"/>
<text text-anchor="middle" x="113.5" y="-373.32" font-family="Times,serif" font-size="14.00">per&#45;read variants</text>
</g>
<!-- b&#45;&gt;c -->
<g id="edge2" class="edge">
<title>b&#45;&gt;c</title>
<path fill="none" stroke="black" d="M113.5,-431.7C113.5,-424.41 113.5,-415.73 113.5,-407.54"/>
<polygon fill="black" stroke="black" points="117,-407.62 113.5,-397.62 110,-407.62 117,-407.62"/>
</g>
<!-- f -->
<g id="node6" class="node">
<title>f</title>
<ellipse fill="none" stroke="black" cx="215.5" cy="-306" rx="100.14" ry="18"/>
<text text-anchor="middle" x="215.5" y="-301.32" font-family="Times,serif" font-size="14.00">accepted variants</text>
</g>
<!-- c&#45;&gt;f -->
<g id="edge5" class="edge">
<title>c&#45;&gt;f</title>
<path fill="none" stroke="black" d="M137.93,-360.23C150.96,-351.29 167.19,-340.15 181.44,-330.38"/>
<polygon fill="black" stroke="black" points="183.4,-333.27 189.67,-324.73 179.44,-327.5 183.4,-333.27"/>
</g>
<!-- d -->
<g id="node4" class="node">
<title>d</title>
<ellipse fill="none" stroke="black" cx="318.5" cy="-450" rx="98.03" ry="18"/>
<text text-anchor="middle" x="318.5" y="-445.32" font-family="Times,serif" font-size="14.00">parent alignment</text>
</g>
<!-- e -->
<g id="node5" class="node">
<title>e</title>
<ellipse fill="none" stroke="black" cx="318.5" cy="-378" rx="88.56" ry="18"/>
<text text-anchor="middle" x="318.5" y="-373.32" font-family="Times,serif" font-size="14.00">parent variants</text>
</g>
<!-- d&#45;&gt;e -->
<g id="edge3" class="edge">
<title>d&#45;&gt;e</title>
<path fill="none" stroke="black" d="M318.5,-431.7C318.5,-424.41 318.5,-415.73 318.5,-407.54"/>
<polygon fill="black" stroke="black" points="322,-407.62 318.5,-397.62 315,-407.62 322,-407.62"/>
</g>
<!-- e&#45;&gt;f -->
<g id="edge4" class="edge">
<title>e&#45;&gt;f</title>
<path fill="none" stroke="black" d="M293.83,-360.23C280.55,-351.21 263.97,-339.94 249.49,-330.1"/>
<polygon fill="black" stroke="black" points="251.82,-327.45 241.58,-324.72 247.88,-333.24 251.82,-327.45"/>
</g>
<!-- g -->
<g id="node7" class="node">
<title>g</title>
<ellipse fill="none" stroke="black" cx="107.5" cy="-234" rx="107.5" ry="18"/>
<text text-anchor="middle" x="107.5" y="-229.32" font-family="Times,serif" font-size="14.00">most likley parents</text>
</g>
<!-- f&#45;&gt;g -->
<g id="edge6" class="edge">
<title>f&#45;&gt;g</title>
<path fill="none" stroke="black" d="M189.63,-288.23C175.71,-279.21 158.32,-267.94 143.14,-258.1"/>
<polygon fill="black" stroke="black" points="145.1,-255.2 134.8,-252.7 141.29,-261.07 145.1,-255.2"/>
</g>
<!-- i -->
<g id="node9" class="node">
<title>i</title>
<ellipse fill="none" stroke="black" cx="323.5" cy="-234" rx="90.14" ry="18"/>
<text text-anchor="middle" x="323.5" y="-229.32" font-family="Times,serif" font-size="14.00">corrected reads</text>
</g>
<!-- f&#45;&gt;i -->
<g id="edge8" class="edge">
<title>f&#45;&gt;i</title>
<path fill="none" stroke="black" d="M241.37,-288.23C255.4,-279.14 272.94,-267.77 288.2,-257.88"/>
<polygon fill="black" stroke="black" points="290.09,-260.83 296.57,-252.45 286.28,-254.96 290.09,-260.83"/>
</g>
<!-- h -->
<g id="node8" class="node">
<title>h</title>
<ellipse fill="none" stroke="black" cx="107.5" cy="-162" rx="70.67" ry="18"/>
<text text-anchor="middle" x="107.5" y="-157.32" font-family="Times,serif" font-size="14.00">breakpoints</text>
</g>
<!-- g&#45;&gt;h -->
<g id="edge7" class="edge">
<title>g&#45;&gt;h</title>
<path fill="none" stroke="black" d="M107.5,-215.7C107.5,-208.41 107.5,-199.73 107.5,-191.54"/>
<polygon fill="black" stroke="black" points="111,-191.62 107.5,-181.62 104,-191.62 111,-191.62"/>
</g>
<!-- j -->
<g id="node10" class="node">
<title>j</title>
<ellipse fill="none" stroke="black" cx="323.5" cy="-162" rx="121.18" ry="18"/>
<text text-anchor="middle" x="323.5" y="-157.32" font-family="Times,serif" font-size="14.00">corrected read counts</text>
</g>
<!-- i&#45;&gt;j -->
<g id="edge9" class="edge">
<title>i&#45;&gt;j</title>
<path fill="none" stroke="black" d="M323.5,-215.7C323.5,-208.41 323.5,-199.73 323.5,-191.54"/>
<polygon fill="black" stroke="black" points="327,-191.62 323.5,-181.62 320,-191.62 327,-191.62"/>
</g>
<!-- k -->
<g id="node11" class="node">
<title>k</title>
<ellipse fill="none" stroke="black" cx="323.5" cy="-90" rx="138.54" ry="18"/>
<text text-anchor="middle" x="323.5" y="-85.33" font-family="Times,serif" font-size="14.00">translate corrected reads</text>
</g>
<!-- j&#45;&gt;k -->
<g id="edge10" class="edge">
<title>j&#45;&gt;k</title>
<path fill="none" stroke="black" d="M323.5,-143.7C323.5,-136.41 323.5,-127.73 323.5,-119.54"/>
<polygon fill="black" stroke="black" points="327,-119.62 323.5,-109.62 320,-119.62 327,-119.62"/>
</g>
<!-- l -->
<g id="node12" class="node">
<title>l</title>
<ellipse fill="none" stroke="black" cx="323.5" cy="-18" rx="124.86" ry="18"/>
<text text-anchor="middle" x="323.5" y="-13.32" font-family="Times,serif" font-size="14.00">translated read counts</text>
</g>
<!-- k&#45;&gt;l -->
<g id="edge11" class="edge">
<title>k&#45;&gt;l</title>
<path fill="none" stroke="black" d="M323.5,-71.7C323.5,-64.41 323.5,-55.73 323.5,-47.54"/>
<polygon fill="black" stroke="black" points="327,-47.62 323.5,-37.62 320,-47.62 327,-47.62"/>
</g>
</g>
</svg>
